# xmcd
#
# Track frame offsets:
#	150
#	17454
#	31918
#	44017
#	63090
#	88561
#	104123
#	121868
#	153467
#	171224
#	188799
#	206124
#	220736
#
# Disc length: 3224 seconds
#
# Revision: 0
# Processed by: cddbd v1.5.2PL0 Copyright (c) Steve Scherf et al.
# Submitted via: dBpowerAMP V4.0
#
DISCID=af0c960d
DTITLE=The Blues Preachers - Next Stop Beulah Land
DYEAR=2007
DGENRE=Blues
TTITLE0=Daniel
TTITLE1=Wabash Rag
TTITLE2=Louis Collins
TTITLE3=Sittin On Top Of The World 
TTITLE4=Saint James Infirmary
TTITLE5=Plant The Seed
TTITLE6=Goin Up The Country
TTITLE7=Nobody's Fault But Mine
TTITLE8=Trimmed and Burning
TTITLE9=Trouble
TTITLE10=Chump Man Blues
TTITLE11=Mystery Train
TTITLE12=Prodigal Son
EXTD=
EXTT0=
EXTT1=
EXTT2=
EXTT3=
EXTT4=
EXTT5=
EXTT6=
EXTT7=
EXTT8=
EXTT9=
EXTT10=
EXTT11=
EXTT12=
PLAYORDER=
